<?xml version="1.0" encoding="utf-8"?>
<!-- Generator: Adobe Illustrator 25.4.8, SVG Export Plug-In . SVG Version: 6.00 Build 0)  -->
<svg version="1.1" id="レイヤー_1" xmlns="http://www.w3.org/2000/svg" xmlns:xlink="http://www.w3.org/1999/xlink" x="0px"
	 y="0px" viewBox="0 0 1417.3 637.8" style="enable-background:new 0 0 1417.3 637.8;" xml:space="preserve">
<style type="text/css">
	.st0{fill:#553D8E;}
	.st1{fill:#00A099;}
	.st2{fill:#64666A;}
</style>
<g id="objects">
	<path class="st0" d="M419,381.9c-25,0.2-49.1-9.7-66.8-27.4c-17.9-18.2-27.9-42.7-27.9-68.2c0.1-26.3,10.2-50.6,28.6-68.5
		c17.9-17.5,42-27.2,66.4-26.8c24.3-0.3,48.5,9.6,66.3,27.2c18.2,18,28.2,42.4,28.1,68.7C513.5,340.2,472,381.9,419,381.9L419,381.9
		z M418.6,206.7c-20.8,0.1-40.7,8.4-55.2,23.3c-31.1,30.7-31.5,80.8-0.8,112c0.8,0.8,1.5,1.5,2.3,2.2c14.9,14,34.6,22,53.9,22l0,0
		c20.8,0,41.5-8.9,56.6-24.5c14.9-15.3,22.8-34.9,22.2-55.3v-0.1c0.6-20-7.5-40.3-22.2-55.5C460.5,215.4,440,206.7,418.6,206.7
		L418.6,206.7z"/>
	<path class="st0" d="M668.2,380.1c-4.8,0-8.4-2.3-12.6-7.4c-21.4-25.9-42.8-51.9-64.1-77.8c-1-1.3-7.7-10.1-7.7-10.1
		s11.6-0.4,13.5-0.4c11.7,0.1,24.1,0,36.2-2.8c10.4-2.3,19.6-8.6,25.5-17.5c7.7-11.3,8-23,0.8-34.7c-6.7-10.9-17.5-17.7-32-20.1
		c-4.6-0.7-9.3-1-14-1h-39c-2.2,0-5.4,0.2-7.2,0.4v170.3h-15.7V193.3c0,0,7.8-0.4,9.1-0.4h57.2c14.7,0,27.5,4,38,11.2
		c15.9,11,23.7,24.6,23.8,41.6c0.2,19.8-9.7,35.4-29.3,46.1c-7.6,4.2-15.9,6-24.6,6.7c-2.2,0.2-7.8,0.7-10,1
		c2.9,4.2,63.7,77.8,63.7,77.8l-2.6,0.9C674.4,379.3,671.3,380,668.2,380.1z"/>
	<path class="st0" d="M848.9,379.3h-121V193.2h120.8v15.7H743.2v69.3c4,0.3,8,0.4,12,0.3h70.1v15.6h-71c-4.2,0-7.8,0.2-11,0.4v69.3
		c7.5,0.4,9.8,0.3,17.1,0.2c3.7,0,88.7,0,88.7,0L848.9,379.3z"/>
	<path class="st0" d="M1130.3,379.9c-2.9-0.1-5.8-0.5-8.7-1l-2.5-0.4l88.3-189.8l83.4,189.9c-2.2,0.5-4.4,0.9-6.6,1.1
		c-9.1,0.6-9.8,0-13.6-8.4c-1.3-3-11.4-25.5-14.8-33.8c-1.5-3.5-3.3-4.7-7.3-4.7c-29.4,0.2-58.3,0.2-85.8,0h-0.1
		c-3.8,0-5.7,1.2-7.2,4.8c-3.4,7.8-13.7,29.6-15.2,32.8C1136.8,377.7,1135.2,379.9,1130.3,379.9z M1166.2,317.1h80.4l-39.4-89.1
		C1198.3,243.5,1170.8,304.3,1166.2,317.1z"/>
	<path class="st0" d="M221.7,382c-8.1,0-16.1-1-23.9-3.1c-34.3-9.1-69.4-40.8-70.5-91c-0.6-20.7,5.7-41,17.8-57.8
		c11.5-15.8,27.6-27.7,46-34.2c35.5-12.5,77.5-1.4,100,26.4l1.2,1.4l-10.8,9.5l-1.3-1.2c-17.7-17.3-38.6-26.2-60.6-25.5
		c-21.2,0.7-41.2,9.9-55.6,25.5c-28.2,30.6-28.3,77.6-0.3,108.3c20.7,23,53,31.7,82.4,22c14-4.6,26-12.8,36.8-25.1l1.2-1.3l11.6,8.8
		l-1,1.5c-9,13.2-23.4,23.9-40.5,30.1C243.8,380,232.8,382,221.7,382z"/>
	<path class="st0" d="M949,379.9c-24.8,0-48.2-0.4-52.2-1.4l-1.5-0.4v-185l1.8-0.1l2.3-0.1c1.6-0.1,2.6-0.2,4-0.2
		c1.1,0,2.2,0.1,3.3,0.2c0.5,0.1,1.2,0.2,1.9,0.2l1.7,0.2v170.8h103.1l0.6,13.5l-1.4,0.4C1009,379.3,978,379.9,949,379.9z"/>
	<path class="st0" d="M1054.3,165c-10.5-0.1-18.9-8.7-18.8-19.2c0.1-10.5,8.7-18.9,19.2-18.8c10.4,0.1,18.8,8.6,18.8,19
		C1073.4,156.5,1064.8,165,1054.3,165z"/>
	<path class="st1" d="M1078.1,380.8c-0.1-0.3-10.4-28-28.6-64.5c-11.5-23.1-13.2-52.3-4.7-78.1c4-11.9,6.8-24.2,8.4-36.7
		c0.5-6.8,0.9-12,0.9-12l5.7,0.2c0,0-0.4,6.3-0.9,12.6c-1.6,19.4-3.5,57.1-1.5,78.1c2.6,27.6,25.8,97.7,26,98.4L1078.1,380.8z"/>
	<path class="st2" d="M616.9,433.7h8.7l24.2,57.3h-9l-5.8-14.4h-28.1L601,491h-8.6L616.9,433.7z M620.9,441.4l-11.4,28.4h22.8
		L620.9,441.4z"/>
	<path class="st2" d="M685.3,433.7h14c11.3,0,22.2,1.8,22.2,15.5c0,7-5.2,11.9-11.8,13v0.2c2.5,1,3.8,2.2,5.6,5.8l10.9,22.8h-9.3
		l-8.8-19.9c-2.6-5.6-5.3-5.6-9.7-5.6h-4.9V491h-8.2L685.3,433.7z M693.5,458.4h7c7.8,0,12.4-3.5,12.4-9c0-5.2-3.9-8.5-11.5-8.5
		h-7.9L693.5,458.4z"/>
	<path class="st2" d="M734.3,433.7h8.2V491h-8.2V433.7z"/>
	<path class="st2" d="M795,443.2c-3.6-2.1-7.7-3.2-11.8-3.2c-13.2,0-22,9.5-22,22.4c0,13.5,9.7,22.5,21.6,22.5
		c4.1,0,9.6-1.1,12.5-2.8l0.5,8c-4.4,1.8-9.7,2-13.1,2c-18.1,0-30.2-11.6-30.2-29.9c0-17.7,12.8-29.4,30.3-29.4
		c4.4-0.1,8.8,0.8,12.9,2.5L795,443.2z"/>
	<path class="st2" d="M828.7,432.7c17.4,0,27.5,12.7,27.5,29.6c0,17.4-10.1,29.6-27.5,29.6s-27.6-12.2-27.6-29.6
		C801.1,445.4,811.2,432.7,828.7,432.7z M828.7,484.8c13.2,0,18.8-11,18.8-22.5c0-11.6-6.2-22.5-18.8-22.4s-18.9,10.7-18.9,22.4
		C809.8,473.8,815.4,484.8,828.7,484.8z"/>
	<path class="st2" d="M866.7,433.7h8.2v24h27.4v-24h8.2V491h-8.2v-26.1h-27.4V491h-8.2L866.7,433.7z"/>
	<path class="st2" d="M988.8,443.2c-3.6-2.1-7.6-3.2-11.7-3.2c-13.3,0-22,9.5-22,22.4c0,13.5,9.7,22.5,21.6,22.5
		c4.1,0,9.6-1.1,12.5-2.8l0.5,8c-4.3,1.8-9.7,2-13,2c-18.1,0-30.2-11.6-30.2-29.9c0-17.7,12.8-29.4,30.3-29.4
		c4.4-0.1,8.8,0.8,12.9,2.5L988.8,443.2z"/>
	<path class="st2" d="M1015.5,448.2c12.8,0,21.3,9.2,21.3,21.9c0,12-8.7,21.9-21.3,21.9c-12.6,0-21.3-9.9-21.3-21.9
		C994.3,457.4,1002.8,448.2,1015.5,448.2z M1015.5,485.7c9.1,0,13.1-8.2,13.1-15.7c0-8-4.8-15.7-13.1-15.7s-13,7.7-13,15.7
		C1002.5,477.5,1006.5,485.7,1015.5,485.7z"/>
	<path class="st2" d="M1045.5,449.1h7.2v6.1h0.2c3-4.9,7.1-7.1,13.3-7.1c5.3-0.1,10.1,3.2,11.9,8.1c2.5-4.9,7.5-8,12.9-8.1
		c10.7,0,14.6,6.9,14.6,16V491h-7.7v-25c0-5.2-1.2-11.6-7.5-11.6c-7.9,0-11,7.7-11,15.5V491h-7.7v-25c0-5.2-1.3-11.6-7.5-11.6
		c-7.8,0-11,7.7-11,15.5V491h-7.7L1045.5,449.1z"/>
	<path class="st2" d="M1117,449.1h7.4v6h0.1c2.1-3.1,6.8-6.9,14.2-6.9c12.2,0,18,9.9,18,21.2c0,11.5-5.3,22.6-17.9,22.6
		c-7.4,0-11.6-2.9-14-6.7h-0.1v23h-7.7L1117,449.1z M1137.1,454.4c-8.4,0-12.4,8-12.4,15.8c0,7,3.6,15.6,12.3,15.6
		c8.3,0,11.8-9.2,11.6-15.8C1148.7,462.3,1145.4,454.4,1137.1,454.4L1137.1,454.4z"/>
	<path class="st2" d="M1167.4,452.1c4.2-2.6,8.9-3.9,13.8-4c12,0,16.9,5.9,16.9,17.3v17.3c-0.1,2.7,0,5.5,0.3,8.2h-7.2v-5.4h-0.2
		c-3,4.2-7.9,6.5-13,6.4c-9,0-15.3-3.9-15.3-13c0-10.5,11.5-13.8,19.4-13.8c3,0,5.2,0,8.2,0.2c0-7.2-2.6-10.9-10.3-10.9
		c-4.4,0-8.7,1.5-12.1,4.3L1167.4,452.1z M1190.3,471.1c-1.7,0-3.3-0.2-4.9-0.2c-4.2,0-14.6,0.7-14.6,8c0,4.4,4.3,6.8,7.9,6.8
		c7.5,0,11.6-4.7,11.6-11V471.1z"/>
	<path class="st2" d="M1209.5,449.1h7.5v6.7h0.1c2.3-4.8,7.9-7.6,13.8-7.6c10.8,0,15.7,6.7,15.7,18V491h-7.7v-21.7
		c0-9.8-2.1-14.5-8.9-15c-8.7,0-12.7,7.1-12.7,17.2V491h-7.7V449.1z"/>
	<path class="st2" d="M1255,502.4c1.2,0.4,2.4,0.6,3.6,0.6c6.9,0,9.2-9.5,9.2-10.4s-1-3-1.5-4.4l-14.2-39.1h8.5l11.2,34.6h0.2
		l11.5-34.6h7.8l-15.4,42.8c-2.9,8-5.9,17.3-16.1,17.3c-1.8,0-3.5-0.2-5.3-0.6L1255,502.4z"/>
</g>
</svg>
